<?xml version="1.0" standalone="no"?>
<!DOCTYPE svg PUBLIC "-//W3C//DTD SVG 20010904//EN"
 "http://www.w3.org/TR/2001/REC-SVG-20010904/DTD/svg10.dtd">
<svg version="1.0" xmlns="http://www.w3.org/2000/svg"
 width="488.000000pt" height="160.000000pt" viewBox="0 0 488.000000 160.000000"
 preserveAspectRatio="xMidYMid meet">

<g transform="translate(0.000000,160.000000) scale(0.100000,-0.100000)"
fill="#000000" stroke="none">
<path d="M81 1577 c-19 -7 -42 -23 -53 -37 -17 -24 -18 -49 -16 -430 l3 -404
65 61 c36 34 81 82 100 107 19 25 37 45 40 46 3 0 16 -33 29 -73 l23 -74 -20
-39 c-61 -119 -105 -302 -88 -367 22 -91 117 -69 232 54 89 96 162 239 218
429 18 65 26 80 32 65 4 -11 16 -42 26 -69 l19 -48 -31 -115 c-54 -203 -51
-285 13 -339 29 -24 37 -26 97 -22 71 5 170 49 239 106 l33 28 -21 69 c-105
340 -46 717 154 983 30 41 55 75 55 78 0 2 -251 4 -557 3 -405 0 -567 -3 -592
-12z"/>
<path d="M1440 1563 c-48 -23 -177 -154 -229 -232 -64 -93 -128 -237 -158
-348 -36 -137 -38 -315 -5 -420 12 -40 27 -73 32 -73 12 0 130 136 201 232
125 169 229 369 274 526 34 118 34 252 -1 299 -26 34 -65 40 -114 16z"/>
<path d="M2630 1250 c0 -28 3 -30 35 -30 32 0 35 2 35 30 0 28 -3 30 -35 30
-32 0 -35 -2 -35 -30z"/>
<path d="M3930 1250 c0 -27 3 -30 30 -30 27 0 30 3 30 30 0 27 -3 30 -30 30
-27 0 -30 -3 -30 -30z"/>
<path d="M4422 1253 c-35 -51 -35 -53 -7 -53 16 0 41 14 68 40 l42 39 -42 1
c-34 0 -45 -5 -61 -27z"/>
<path d="M1842 1112 c3 -175 10 -195 71 -232 41 -25 120 -26 167 -2 64 32 75
66 75 240 l0 152 -37 0 -38 0 0 -150 c0 -147 -1 -152 -25 -175 -30 -31 -86
-34 -114 -6 -15 15 -20 41 -26 134 -4 63 -6 134 -3 156 l4 41 -39 0 -39 0 4
-158z"/>
<path d="M4120 1210 c0 -43 -3 -50 -20 -50 -15 0 -20 -7 -20 -25 0 -18 5 -25
20 -25 19 0 20 -7 20 -109 0 -102 2 -111 22 -125 12 -9 39 -16 60 -16 35 0 38
2 38 29 0 23 -4 28 -18 24 -33 -8 -43 20 -40 109 3 82 3 83 31 86 21 3 27 9
27 27 0 18 -6 24 -27 27 -26 3 -28 7 -31 51 -3 45 -5 47 -33 47 -28 0 -29 -1
-29 -50z"/>
<path d="M2276 1152 c-3 -5 -3 -71 -1 -148 l3 -139 31 -3 31 -3 0 110 c0 102
2 111 22 125 27 19 59 21 76 4 8 -8 12 -51 12 -126 l0 -113 33 3 c28 3 32 6
31 33 0 17 -1 74 -2 128 -2 82 -5 100 -22 117 -24 24 -83 26 -120 5 -32 -18
-40 -18 -40 0 0 16 -45 22 -54 7z"/>
<path d="M2630 1009 l0 -150 33 3 32 3 3 148 3 147 -36 0 -35 0 0 -151z"/>
<path d="M2802 1088 c70 -247 59 -223 97 -223 l35 0 43 145 c23 80 43 146 43
148 0 1 -15 2 -34 2 l-34 0 -22 -95 c-12 -52 -25 -97 -29 -99 -3 -2 -17 40
-29 95 l-23 99 -34 0 -33 0 20 -72z"/>
<path d="M3132 1144 c-35 -24 -54 -71 -54 -134 0 -68 21 -114 62 -135 53 -28
134 -14 169 29 11 13 9 17 -12 27 -20 9 -30 8 -48 -5 -13 -9 -33 -16 -45 -16
-25 0 -64 43 -64 71 0 17 9 19 90 19 l90 0 0 30 c0 42 -23 94 -51 114 -30 20
-108 21 -137 0z m108 -44 c37 -37 26 -50 -40 -50 -47 0 -60 3 -60 15 0 22 37
55 60 55 11 0 29 -9 40 -20z"/>
<path d="M3410 1010 l0 -150 30 0 30 0 0 93 c0 84 2 96 23 114 12 11 30 23 40
26 11 4 17 17 17 37 0 38 -22 40 -55 4 l-25 -27 0 27 c0 22 -4 26 -30 26 l-30
0 0 -150z"/>
<path d="M3645 1135 c-27 -26 -32 -63 -14 -96 6 -11 39 -33 75 -49 35 -16 64
-35 64 -43 0 -38 -65 -50 -95 -17 -16 18 -19 18 -41 3 -20 -12 -22 -18 -12
-30 24 -29 70 -45 115 -40 109 12 125 122 25 167 -71 31 -77 36 -77 55 0 32
31 42 67 22 29 -17 33 -17 47 -2 15 15 14 18 -8 36 -36 29 -115 26 -146 -6z"/>
<path d="M3930 1013 l0 -148 30 0 30 0 0 148 0 147 -30 0 -30 0 0 -147z"/>
<path d="M4362 1144 c-53 -37 -71 -146 -36 -219 28 -60 109 -84 173 -51 47 25
55 41 28 59 -21 13 -25 13 -46 -4 -13 -11 -31 -19 -41 -19 -26 0 -58 31 -66
63 l-6 27 91 0 91 0 0 35 c0 43 -22 88 -52 109 -29 21 -107 21 -136 0z m108
-44 c37 -37 26 -50 -40 -50 -47 0 -60 3 -60 15 0 22 37 55 60 55 11 0 29 -9
40 -20z"/>
<path d="M1562 1012 c-14 -54 -104 -245 -159 -336 -47 -78 -162 -232 -202
-270 -17 -17 -31 -33 -31 -36 0 -15 80 -43 136 -47 69 -6 143 8 222 43 l52 23
0 320 c0 175 3 326 6 335 3 9 2 16 -3 16 -5 0 -15 -22 -21 -48z"/>
<path d="M3030 740 c0 -28 3 -30 35 -30 32 0 35 2 35 30 0 28 -3 30 -35 30
-32 0 -35 -2 -35 -30z"/>
<path d="M2008 694 c4 -66 4 -67 -20 -59 -12 4 -40 9 -60 12 -33 4 -42 1 -72
-29 -87 -87 -38 -268 73 -268 20 0 46 7 58 15 19 13 22 13 27 0 3 -8 17 -15
31 -15 l25 0 0 205 0 205 -32 0 -33 0 3 -66z m-20 -110 c19 -13 22 -24 22 -81
0 -76 -16 -103 -61 -103 -41 0 -69 41 -69 100 0 82 53 123 108 84z"/>
<path d="M2682 558 l3 -203 128 -3 127 -3 0 31 0 30 -90 0 -90 0 0 175 0 175
-40 0 -40 0 2 -202z"/>
<path d="M77 601 l-67 -79 0 -216 c0 -236 5 -261 55 -284 19 -9 208 -12 740
-12 l714 0 28 24 c25 22 28 32 33 101 5 72 4 76 -15 70 -203 -59 -318 -41
-418 63 l-39 40 -73 -53 c-212 -152 -357 -101 -430 149 l-17 58 -26 -43 c-66
-113 -174 -228 -238 -255 -78 -33 -124 14 -179 182 -29 87 -32 173 -11 272 7
34 13 62 11 62 -1 0 -32 -35 -68 -79z"/>
<path d="M2219 635 c-54 -29 -77 -143 -45 -220 27 -63 125 -86 192 -44 39 24
42 34 13 49 -16 9 -26 8 -44 -4 -49 -32 -96 -13 -110 47 l-7 27 91 0 91 0 0
35 c0 43 -22 88 -52 109 -28 20 -94 20 -129 1z m109 -53 c6 -9 12 -24 12 -34
0 -15 -9 -18 -54 -18 -60 0 -73 9 -56 40 21 39 71 45 98 12z"/>
<path d="M3030 500 l0 -150 35 0 35 0 0 150 0 150 -35 0 -35 0 0 -150z"/>
<path d="M3214 637 c-2 -7 -3 -74 -2 -148 l3 -134 32 -3 32 -3 3 113 c3 111 3
112 30 128 21 11 32 12 45 4 15 -9 18 -29 21 -128 l3 -117 32 3 32 3 5 110 c5
107 6 110 32 125 21 11 32 12 45 4 15 -9 18 -29 21 -128 l3 -116 29 0 30 0 0
128 c0 154 -8 172 -74 172 -28 0 -52 -7 -69 -20 l-26 -21 -21 21 c-24 24 -87
27 -116 5 -25 -19 -34 -19 -34 0 0 19 -49 20 -56 2z"/>
<path d="M3755 628 c-102 -80 -55 -278 67 -278 83 0 128 53 128 150 0 64 -23
116 -61 135 -42 22 -101 19 -134 -7z m109 -43 c19 -20 30 -77 22 -117 -13 -67
-71 -91 -102 -43 -23 35 -22 130 2 156 21 23 57 25 78 4z"/>
<path d="M4071 636 c-27 -15 -50 -52 -51 -81 0 -11 9 -34 19 -52 19 -31 19
-31 0 -49 -24 -22 -24 -46 1 -69 20 -18 20 -18 -2 -29 -33 -17 -31 -63 4 -89
52 -39 203 -19 222 28 3 9 6 30 6 46 0 39 -31 57 -115 66 -52 6 -70 12 -70 23
0 11 17 18 57 24 67 10 101 39 102 89 0 17 -2 39 -4 47 -3 9 3 16 18 18 31 5
31 42 -1 42 -13 0 -28 -5 -34 -11 -8 -8 -17 -8 -31 0 -28 15 -92 13 -121 -3z
m107 -54 c17 -22 15 -39 -8 -62 -24 -24 -38 -25 -68 -4 -28 19 -28 48 -1 75
22 22 55 19 77 -9z m6 -232 c29 -11 35 -44 10 -54 -20 -8 -88 -8 -108 0 -21 8
-20 40 2 53 22 13 64 14 96 1z"/>
<path d="M4381 625 c-39 -34 -58 -111 -42 -172 17 -62 48 -93 98 -100 52 -7
82 0 117 28 l27 21 -21 15 c-19 14 -25 13 -54 -2 -41 -22 -79 -14 -94 20 -24
52 -19 55 78 55 89 0 90 0 90 25 0 44 -31 105 -61 120 -45 24 -103 19 -138
-10z m115 -40 c37 -37 27 -50 -37 -46 -30 1 -56 4 -57 6 -10 9 12 47 31 55 33
13 36 12 63 -15z"/>
<path d="M4686 627 c-29 -30 -34 -71 -11 -104 8 -11 39 -31 69 -44 58 -24 74
-43 55 -65 -16 -19 -55 -18 -90 3 -26 16 -30 16 -45 2 -14 -15 -12 -18 16 -43
25 -20 42 -26 80 -26 66 0 102 30 102 83 0 48 -19 70 -88 97 -58 24 -71 50
-34 70 16 8 27 7 50 -7 28 -16 31 -16 47 0 16 16 16 18 1 34 -10 10 -39 18
-72 21 -48 4 -57 2 -80 -21z"/>
</g>
</svg>
